<!-- Generated by IcoMoon.io -->
<svg version="1.1" xmlns="http://www.w3.org/2000/svg" width="43" height="32" viewBox="0 0 43 32">
<path d="M18.479 13.506l0.043 7.323h1.441v-14.559l-1.514-0.087 0.029 7.323zM19.272 16.908c-0.014 1.831-0.029 0.332-0.029-3.359s0.014-5.189 0.029-3.344c0.029 1.831 0.029 4.858 0 6.703z"></path>
<path d="M20.613 8.432v0.807l2.955-0.086v-1.441l-2.955-0.087v0.807zM22.876 8.447c-0.13 0.13-1.557 0.159-1.629 0.029-0.043-0.072 0.332-0.115 0.822-0.115s0.865 0.043 0.807 0.086z"></path>
<path d="M16.087 8.721c-0.13 0.36-0.101 11.791 0.043 12.007 0.072 0.13 0.36 0.173 0.822 0.144l0.706-0.043v-12.252l-0.735-0.043c-0.577-0.029-0.764 0.014-0.836 0.187zM17.009 14.703c0 3.56-0.058 5.477-0.144 5.477s-0.144-1.917-0.144-5.477c0-3.56 0.058-5.477 0.144-5.477s0.144 1.917 0.144 5.477z"></path>
<path d="M20.641 10.768l0.043 0.836 2.306 0.043c3.041 0.058 2.984 0.072 2.926-0.879l-0.043-0.75-2.638-0.043-2.638-0.029 0.043 0.822zM25.225 10.811c0 0.086-0.735 0.144-1.932 0.144-1.139 0-1.975-0.058-2.032-0.144s0.62-0.144 1.932-0.144c1.254 0 2.032 0.058 2.032 0.144z"></path>
<path d="M13.795 10.897c-0.058 0.058-0.101 2.335-0.101 5.059v4.959l1.514-0.087v-9.946l-0.649-0.043c-0.36-0.029-0.706 0-0.764 0.058zM14.53 15.885l-0.043 4.368-0.072-4.252c-0.072-4.079-0.058-4.468 0.086-4.468 0.029 0 0.043 1.96 0.029 4.353z"></path>
<path d="M20.584 12.411c-0.029 0.086-0.014 0.461 0.029 0.836l0.072 0.663 3.459 0.043c1.903 0.014 3.604 0 3.791-0.043 0.303-0.072 0.332-0.144 0.288-0.836l-0.043-0.75-3.777-0.043c-2.681-0.029-3.777 0.014-3.82 0.13zM27.532 13.117c0 0.086-1.124 0.144-3.085 0.144-1.917 0-3.128-0.058-3.186-0.144-0.058-0.101 1.009-0.144 3.085-0.144 2.032 0 3.186 0.058 3.186 0.144z"></path>
<path d="M11.56 13.232c-0.13 0.101-0.173 0.966-0.144 3.863l0.043 3.733h1.586l0.043-3.661c0.029-2.58-0.014-3.719-0.13-3.849-0.173-0.216-1.095-0.274-1.398-0.086zM12.396 17.009c0 2.018-0.058 3.171-0.144 3.171s-0.144-1.153-0.144-3.171c0-2.018 0.058-3.171 0.144-3.171s0.144 1.153 0.144 3.171z"></path>
<path d="M20.67 14.76c-0.043 0.101-0.058 0.476-0.029 0.822l0.043 0.634h9.802v-1.586l-4.872-0.043c-4.065-0.029-4.872 0-4.944 0.173zM29.838 15.423c0 0.086-1.514 0.144-4.252 0.144s-4.252-0.058-4.252-0.144c0-0.086 1.514-0.144 4.252-0.144s4.252 0.058 4.252 0.144z"></path>
<path d="M9.73 15.568l-0.577 0.072v5.189l0.62 0.043c1.023 0.072 1.038 0.029 1.038-2.724 0-2.739 0-2.739-1.081-2.58zM10.090 18.234c0 1.196-0.058 1.946-0.144 1.946s-0.144-0.75-0.144-1.946c0-1.196 0.058-1.946 0.144-1.946s0.144 0.75 0.144 1.946z"></path>
<path d="M20.67 17.067c-0.043 0.101-0.058 0.476-0.029 0.822l0.043 0.634h12.108v-1.586l-6.025-0.043c-5.045-0.029-6.025 0-6.097 0.173zM32.144 17.73c0 0.087-1.903 0.144-5.405 0.144s-5.405-0.058-5.405-0.144c0-0.087 1.903-0.144 5.405-0.144s5.405 0.058 5.405 0.144z"></path>
<path d="M6.573 18.105c-0.115 0.288-0.115 2.277 0 2.566 0.072 0.173 0.288 0.231 0.865 0.231h0.778v-3.027h-0.778c-0.577 0-0.793 0.058-0.865 0.231zM7.495 19.387c0 0.432-0.058 0.793-0.115 0.793s-0.115-0.36-0.115-0.793c0.014-0.432 0.058-0.793 0.13-0.793 0.058 0 0.101 0.36 0.101 0.793z"></path>
<path d="M20.713 19.272c-0.072 0.115-0.144 1.081-0.115 1.456 0.014 0.144 1.514 0.173 7.265 0.144l7.236-0.043v-1.586l-7.164-0.043c-3.935-0.014-7.193 0.014-7.222 0.072zM34.45 20.036c0 0.101-2.306 0.144-6.645 0.144-4.382 0-6.602-0.043-6.544-0.144 0.058-0.087 2.422-0.144 6.645-0.144 4.267 0 6.544 0.043 6.544 0.144z"></path>
<path d="M6.904 23.207c0.029 0.879-0.014 1.369-0.13 1.514-0.159 0.187-0.101 0.216 0.303 0.216h0.49v-3.027h-0.721l0.058 1.297z"></path>
<path d="M8.721 23.438v1.499h0.36c0.36 0 0.36-0.014 0.288-1.009-0.043-0.562-0.043-1.009 0-1.009s0.476 0.447 0.937 0.995c0.634 0.735 0.966 1.009 1.225 1.009l0.36 0.014v-3.027h-0.375c-0.36 0-0.36 0.014-0.303 0.85 0.029 0.476 0.043 0.923 0 1.023-0.029 0.087-0.447-0.274-0.908-0.822-0.605-0.677-0.98-0.98-1.225-1.009l-0.36-0.014v1.499z"></path>
<path d="M12.901 23.467v1.499l1.268-0.058c1.196-0.043 1.297-0.072 1.629-0.447 0.404-0.476 0.461-1.196 0.13-1.831-0.245-0.476-0.432-0.533-1.946-0.62l-1.081-0.058v1.514zM15.366 22.861c0.202 0.288 0.216 0.476 0.115 0.894s-0.216 0.533-0.62 0.634c-0.259 0.072-0.649 0.115-0.836 0.087-0.36-0.043-0.375-0.087-0.389-1.023l-0.029-0.966h0.764c0.649 0 0.793 0.043 0.995 0.375z"></path>
<path d="M18.667 23.452v1.485h1.268c1.067 0 1.297-0.043 1.542-0.288 0.375-0.375 0.375-0.793 0-1.052-0.259-0.187-0.274-0.231-0.072-0.389 0.288-0.245 0.274-0.822-0.029-0.98-0.144-0.072-0.807-0.173-1.485-0.202l-1.225-0.058v1.485zM21.002 22.703c0.115 0.346-0.043 0.418-0.865 0.432-0.663 0-0.75-0.029-0.793-0.332s0-0.317 0.764-0.317c0.591 0 0.822 0.058 0.894 0.216zM21.002 23.798c0.346 0.346 0.029 0.562-0.836 0.562-0.807 0-0.85-0.014-0.85-0.36s0.043-0.36 0.764-0.36c0.418 0 0.836 0.072 0.923 0.159z"></path>
<path d="M22.645 23.15c0.072 1.096 0.115 1.283 0.432 1.528 0.274 0.245 0.505 0.274 1.268 0.231 1.153-0.072 1.312-0.259 1.312-1.571 0-0.533 0.043-1.067 0.087-1.196 0.072-0.173 0-0.231-0.317-0.231h-0.418v1.182c0 1.168-0.014 1.196-0.389 1.326-0.259 0.087-0.548 0.087-0.793 0-0.389-0.13-0.404-0.159-0.404-1.326v-1.182h-0.865l0.087 1.24z"></path>
<path d="M26.739 23.423v1.514h0.49c0.404 0 0.461-0.029 0.303-0.216-0.115-0.144-0.159-0.634-0.13-1.514l0.058-1.297h-0.721v1.514z"></path>
<path d="M28.468 23.409v1.514l2.811 0.087v-0.36c0-0.36-0.014-0.36-1.081-0.317l-1.081 0.058v-1.067c0-0.634 0.072-1.139 0.173-1.24 0.13-0.13 0.058-0.173-0.317-0.173h-0.505v1.499z"></path>
<path d="M31.928 23.452v1.485h1.052c0.634 0 1.211-0.087 1.456-0.216 0.548-0.274 0.822-0.951 0.649-1.614-0.202-0.778-0.649-1.023-2.004-1.081l-1.153-0.043v1.47zM34.177 22.631c0.202 0.115 0.274 0.303 0.274 0.778 0 0.778-0.216 0.966-1.153 1.067l-0.721 0.072v-2.061h0.663c0.36 0 0.778 0.072 0.937 0.144z"></path>
</svg>
